HIERARCHY
ROOT SpineBase
{
  OFFSET 0.000000 0.000000 0.000000
  CHANNELS 6 Xposition Yposition Zposition Zrotation Xrotation Yrotation
  JOINT SpineMid
  {
    OFFSET 0.000000 25.529505 0.000000
    CHANNELS 3 Zrotation Xrotation Yrotation
    JOINT SpineShoulder
    {
      OFFSET -0.284913 19.176614 -0.470829
      CHANNELS 3 Zrotation Xrotation Yrotation
      JOINT Neck
      {
        OFFSET -0.284136 6.255455 -0.388428
        CHANNELS 3 Zrotation Xrotation Yrotation
        JOINT Head
        {
          OFFSET 1.667121 9.954807 7.319378
          CHANNELS 3 Zrotation Xrotation Yrotation
          End Site
          {
            OFFSET 0 0 0
          }
        }
      }
      JOINT ShoulderLeft
      {
        OFFSET -2.488990 -3.702317 12.726569
        CHANNELS 3 Zrotation Xrotation Yrotation
        JOINT ElbowLeft
        {
          OFFSET 0.494109 -27.265548 2.221283
          CHANNELS 3 Zrotation Xrotation Yrotation
          JOINT WristLeft
          {
            OFFSET -4.129646 -18.842011 -9.358730
            CHANNELS 3 Zrotation Xrotation Yrotation
            JOINT HandLeft
            {
              OFFSET -0.345688 -3.394741 0.304496
              CHANNELS 3 Zrotation Xrotation Yrotation
              JOINT HandTipLeft
              {
                OFFSET 1.432314 -3.752764 0.008527
                CHANNELS 3 Zrotation Xrotation Yrotation
                End Site
                {
                  OFFSET 0 0 0
                }
              }
              JOINT ThumbLeft
              {
                OFFSET 2.412142 0.083346 -0.460230
                CHANNELS 3 Zrotation Xrotation Yrotation
                End Site
                {
                  OFFSET 0 0 0
                }
              }
            }
          }
        }
      }
      JOINT ShoulderRight
      {
        OFFSET 5.317489 5.639147 -4.639731
        CHANNELS 3 Zrotation Xrotation Yrotation
        JOINT ElbowRight
        {
          OFFSET -11.005252 -25.661530 -6.124104
          CHANNELS 3 Zrotation Xrotation Yrotation
          JOINT WristRight
          {
            OFFSET 6.985433 -19.207536 -8.522804
            CHANNELS 3 Zrotation Xrotation Yrotation
            JOINT HandRight
            {
              OFFSET 1.043256 -6.334430 3.747578
              CHANNELS 3 Zrotation Xrotation Yrotation
              JOINT HandTipRight
              {
                OFFSET 0.723321 -7.430042 -2.877027
                CHANNELS 3 Zrotation Xrotation Yrotation
                End Site
                {
                  OFFSET 0 0 0
                }
              }
              JOINT ThumbRight
              {
                OFFSET 6.136496 0.930937 -1.597169
                CHANNELS 3 Zrotation Xrotation Yrotation
                End Site
                {
                  OFFSET 0 0 0
                }
              }
            }
          }
        }
      }
    }
  }
  JOINT HipLeft
  {
    OFFSET -2.656625 0.690162 -2.560822
    CHANNELS 3 Zrotation Xrotation Yrotation
    JOINT KneeLeft
    {
      OFFSET 22.278466 -33.350806 -0.029059
      CHANNELS 3 Zrotation Xrotation Yrotation
      JOINT AnkleLeft
      {
        OFFSET -2.745839 -34.166178 -13.698904
        CHANNELS 3 Zrotation Xrotation Yrotation
        JOINT FootLeft
        {
          OFFSET -2.447269 -5.190267 -0.663036
          CHANNELS 3 Zrotation Xrotation Yrotation
          End Site
          {
            OFFSET 0 0 0
          }
        }
      }
    }
  }
  JOINT HipRight
  {
    OFFSET 1.104788 1.599741 -2.718272
    CHANNELS 3 Zrotation Xrotation Yrotation
    JOINT KneeRight
    {
      OFFSET 7.620126 -36.936096 -12.313965
      CHANNELS 3 Zrotation Xrotation Yrotation
      JOINT AnkleRight
      {
        OFFSET 9.398109 -31.166910 -2.250524
        CHANNELS 3 Zrotation Xrotation Yrotation
        JOINT FootRight
        {
          OFFSET -9.625010 -2.721810 -7.143281
          CHANNELS 3 Zrotation Xrotation Yrotation
          End Site
          {
            OFFSET 0 0 0
          }
        }
      }
    }
  }
}
MOTION
Frames: 8
Frame Time: 0.033333
90.030970 73.661844 292.123648 -0.000000 0.000000 2.396959 -0.000000 0.000000 -2.396959 -0.000000 0.000000 0.000000 -0.000000 0.000000 0.000000 0.000000 0.000000 0.000000 -0.000000 0.000000 0.000000 -0.000000 0.000000 0.000000 -0.000000 0.000000 0.000000 -0.000000 0.000000 0.000000 0.000000 0.000000 0.000000 0.000000 0.000000 0.000000 -0.000000 0.000000 0.000000 -0.000000 0.000000 0.000000 -0.000000 0.000000 0.000000 -0.000000 0.000000 0.000000 0.000000 0.000000 0.000000 0.000000 0.000000 0.000000 -0.000000 0.000000 -2.396959 -0.000000 0.000000 0.000000 -0.000000 0.000000 0.000000 0.000000 0.000000 0.000000 -0.000000 0.000000 -2.396959 -0.000000 0.000000 0.000000 -0.000000 0.000000 0.000000 0.000000 0.000000 0.000000
90.314878 74.082069 291.394571 0.488268 1.332986 7.491156 -0.284217 -0.295015 -7.478069 -0.340331 0.091708 0.020007 -0.023333 -2.094351 0.208911 0.000000 0.000000 0.000000 0.094679 -1.095074 -0.042931 -0.767176 3.455241 -0.347606 -2.197844 -13.656384 0.712489 -2.647699 9.990715 -0.124434 0.000000 0.000000 0.000000 0.000000 0.000000 0.000000 -1.019024 -1.367272 0.314627 1.114988 0.265821 -0.384075 0.319466 -1.807731 -0.102702 -0.322866 1.807127 0.112834 0.000000 0.000000 0.000000 0.000000 0.000000 0.000000 -2.820010 0.214308 -6.724699 5.494064 -4.233947 -1.684004 -26.044524 19.071067 0.649865 0.000000 0.000000 0.000000 -1.340112 -2.873040 -7.723660 0.458906 1.691977 0.188238 5.645343 -4.408542 1.361894 0.000000 0.000000 0.000000
90.556102 74.420820 290.772562 0.876695 2.477804 11.300346 -0.564714 -0.496756 -11.288790 -0.634464 0.134162 0.029811 0.072623 -3.744869 0.313455 0.000000 0.000000 0.000000 0.212130 -2.013936 -0.074498 -1.451122 6.129029 -0.530516 -3.922403 -23.704943 0.576713 -5.511610 17.227178 1.050014 0.000000 0.000000 0.000000 0.000000 0.000000 0.000000 -1.894098 -2.579177 0.582407 3.094185 0.825039 -1.088726 -0.368953 -3.652482 0.143835 -0.161905 4.703629 0.146917 0.000000 0.000000 0.000000 0.000000 0.000000 0.000000 -5.212211 0.775939 -9.875669 10.639934 -8.553059 -2.970497 -43.248325 28.827885 6.198738 0.000000 0.000000 0.000000 -2.784366 -5.157091 -11.809592 0.814932 3.131033 0.348460 12.839164 -9.655643 3.881300 0.000000 0.000000 0.000000
90.754641 74.678099 290.257619 1.158881 3.418741 14.266970 -0.811864 -0.615630 -14.264976 -0.879399 0.129503 0.031401 0.288328 -4.938329 0.317685 0.000000 0.000000 0.000000 0.352391 -2.751036 -0.094485 -2.066597 8.031749 -0.569432 -5.308867 -30.270901 -0.006325 -8.373334 21.792514 2.819776 0.000000 0.000000 0.000000 0.000000 0.000000 0.000000 -2.604945 -3.627135 0.814881 4.454075 1.219079 -1.623187 -0.630835 -5.019715 0.260797 0.119118 6.817022 0.063179 0.000000 0.000000 0.000000 0.000000 0.000000 0.000000 -7.154225 1.519443 -12.258109 15.336618 -12.755357 -3.859974 -55.124993 33.483309 11.944645 0.000000 0.000000 0.000000 -4.125297 -6.925097 -15.068405 1.071319 4.320941 0.487198 20.761165 -14.755000 7.621135 0.000000 0.000000 0.000000
90.910496 74.853904 289.849742 1.330057 4.143843 16.675640 -1.007654 -0.659057 -16.685428 -1.072910 0.080148 0.026548 0.625151 -5.664432 0.222365 0.000000 0.000000 0.000000 0.515202 -3.302770 -0.103010 -2.622950 9.183299 -0.481687 -6.354016 -33.692961 -0.737603 -10.846713 24.047129 4.530712 0.000000 0.000000 0.000000 0.000000 0.000000 0.000000 -3.131937 -4.504453 1.022447 5.660301 1.600724 -2.142276 -0.954193 -6.026576 0.404467 0.745089 8.720394 -0.191917 0.000000 0.000000 0.000000 0.000000 0.000000 0.000000 -8.643085 2.353149 -14.136614 19.461770 -16.622525 -4.390473 -63.406149 35.786658 16.721988 0.000000 0.000000 0.000000 -5.244195 -8.234808 -17.753378 1.230597 5.265784 0.609555 27.189256 -18.243464 11.580341 0.000000 0.000000 0.000000
91.023666 74.948235 289.548933 1.387247 4.644904 18.716963 -1.140773 -0.632691 -18.736196 -1.213521 -0.011370 0.016709 1.085130 -5.915339 0.024800 0.000000 0.000000 0.000000 0.700004 -3.667311 -0.100529 -3.124358 9.602484 -0.281386 -6.984628 -34.211214 -1.396030 -12.611602 24.292546 5.699111 0.000000 0.000000 0.000000 0.000000 0.000000 0.000000 -3.457056 -5.206018 1.213551 6.693042 1.970076 -2.639208 -1.346344 -6.640494 0.572368 1.795044 10.351880 -0.667423 0.000000 0.000000 0.000000 0.000000 0.000000 0.000000 -9.681647 3.225022 -15.690307 22.881430 -19.952652 -4.638642 -68.673724 37.011860 20.172933 0.000000 0.000000 0.000000 -6.069818 -9.129992 -20.028755 1.294598 5.969197 0.719286 29.462389 -19.242393 14.002662 0.000000 0.000000 0.000000
91.078910 74.842096 289.423251 1.256883 4.739611 21.970670 -0.958641 -0.236907 -21.978377 -1.219187 -0.229224 0.012435 1.351720 -5.784293 -0.183055 0.000000 0.000000 0.000000 0.758398 -3.931177 -0.105255 -4.086185 10.047641 0.173072 -3.539323 -33.283754 -0.593021 -16.401519 23.883359 6.991229 0.000000 0.000000 0.000000 0.000000 0.000000 0.000000 -3.801472 -6.348781 1.589696 8.679010 3.008699 -3.818251 -2.189456 -6.760840 1.549067 3.456991 11.721014 -2.060993 0.000000 0.000000 0.000000 0.000000 0.000000 0.000000 -9.984587 4.622770 -18.338233 26.170539 -23.381886 -4.730212 -64.996689 36.453305 19.724895 0.000000 0.000000 0.000000 -6.527221 -9.295716 -23.442800 1.156867 6.340197 0.842262 24.771927 -16.812548 14.771183 0.000000 0.000000 0.000000
91.019159 74.664062 289.501520 0.878376 4.434202 23.227315 -0.652206 0.177138 -23.215846 -1.311120 -0.506106 -0.018429 2.298776 -4.984383 -0.670146 0.000000 0.000000 0.000000 1.099127 -3.832848 -0.068958 -4.368338 7.794619 0.726840 -3.182980 -22.912761 -1.224781 -16.414952 17.946182 6.348497 0.000000 0.000000 0.000000 0.000000 0.000000 0.000000 -3.478552 -6.668709 1.797565 9.233121 3.406472 -4.278478 -2.496592 -6.759579 1.871564 6.911711 14.251073 -3.942592 0.000000 0.000000 0.000000 0.000000 0.000000 0.000000 -9.095207 4.579993 -19.725041 26.448759 -23.527544 -4.692564 -62.680080 36.730896 18.815967 0.000000 0.000000 0.000000 -5.867287 -9.097215 -24.731578 0.762919 6.249567 0.975483 14.923161 -11.564827 11.643231 0.000000 0.000000 0.000000
